PathFileType	4	(X/Y/Z)	C:\Users\Basilio\Documents\Thesis Gigler\squatting_fais\c3dfiles\077\SLS_front_pre1\markers_experimental.trc
DataRate	CameraRate	NumFrames	NumMarkers	Units	OrigDataRate	OrigDataStartFrame	OrigNumFrames
200.000000	200.000000	4	60	mm	200.000000	2303	3071
Frame#	Time	FHD			LBHD			RBHD			C7			T10			CLAV			LSHO			LUUPA			LMUPA			LDUPA			LLEP			LMEP			LRAD			LUL			LRFIN			RSHO			RUPA1			RMUPA			RDUPA			RLEP			RMEP			RRAD			RUL			RUFIN			LASI			RASI			USACR			LSACR			RSACR			LTHI1			LTHI2			LTHI3			LTHI4			LLFC			LMFC			LTIB1			LTIB2			LTIB3			LTIB4			LLMAL			LHEE			LMT1			LMT2			LMT5			RTHI			RTHI2			RTHI3			RTHI4			RLFC			RMFC			RTIB1			RTIB2			RTIB3			RTIB4			RLMAL			RMMAL			RHEE			RMT1			RMT2			RMT5			
		X1	Y1	Z1	X2	Y2	Z2	X3	Y3	Z3	X4	Y4	Z4	X5	Y5	Z5	X6	Y6	Z6	X7	Y7	Z7	X8	Y8	Z8	X9	Y9	Z9	X10	Y10	Z10	X11	Y11	Z11	X12	Y12	Z12	X13	Y13	Z13	X14	Y14	Z14	X15	Y15	Z15	X16	Y16	Z16	X17	Y17	Z17	X18	Y18	Z18	X19	Y19	Z19	X20	Y20	Z20	X21	Y21	Z21	X22	Y22	Z22	X23	Y23	Z23	X24	Y24	Z24	X25	Y25	Z25	X26	Y26	Z26	X27	Y27	Z27	X28	Y28	Z28	X29	Y29	Z29	X30	Y30	Z30	X31	Y31	Z31	X32	Y32	Z32	X33	Y33	Z33	X34	Y34	Z34	X35	Y35	Z35	X36	Y36	Z36	X37	Y37	Z37	X38	Y38	Z38	X39	Y39	Z39	X40	Y40	Z40	X41	Y41	Z41	X42	Y42	Z42	X43	Y43	Z43	X44	Y44	Z44	X45	Y45	Z45	X46	Y46	Z46	X47	Y47	Z47	X48	Y48	Z48	X49	Y49	Z49	X50	Y50	Z50	X51	Y51	Z51	X52	Y52	Z52	X53	Y53	Z53	X54	Y54	Z54	X55	Y55	Z55	X56	Y56	Z56	X57	Y57	Z57	X58	Y58	Z58	X59	Y59	Z59	X60	Y60	Z60	

2304	11.515	-263.7814941406251	1633.947509765625	-1058.97314453125	-396.480926513672	1517.732543945313	-1130.78369140625	-401.5471801757814	1510.088012695313	-984.5388793945315	-433.456512451172	1377.381958007813	-1072.322875976563	-448.4756774902345	1043.643798828125	-1059.605346679688	-267.4129638671876	1331.470336914063	-1064.869018554688	-280.8175354003907	1376.102172851563	-1234.576171875	-104.871826171875	1340.04638671875	-1330.729736328125	-79.07376098632814	1371.171264648438	-1301.274780273438	-36.78635787963868	1341.230590820313	-1332.320068359375	27.53524971008301	1354.137329101563	-1324.135498046875	35.67802047729493	1284.779174804688	-1296.4453125	310.8171386718751	1399.45703125	-1186.837768554688	319.4350585937501	1409.69091796875	-1266.334594726563	408.281951904297	1434.635620117188	-1191.28564453125	-281.6330871582032	1366.505004882813	-904.6243896484377	-120.521842956543	1333.116088867188	-804.0737304687502	-96.79219818115237	1361.221801757813	-837.3095703125002	-50.69132232666017	1336.1181640625	-806.968933105469	14.24942493438721	1345.762451171875	-817.8731079101565	20.47423553466797	1273.265625	-848.536804199219	nan	nan	nan	304.4036560058594	1392.734497070313	-858.9558715820315	389.4909667968751	1409.289428710938	-940.0953369140627	-242.8625030517579	867.954772949219	-1170.05908203125	-283.3042297363282	885.106384277344	-892.076110839844	-455.5300903320314	921.3911132812502	-1051.666748046875	-457.248992919922	893.0286865234377	-1081.305786132813	-465.8024902343751	887.7744140625002	-1027.115112304688	-191.1416473388672	660.9298706054689	-1215.274780273438	-121.7132797241211	613.0235595703126	-1207.684448242188	-82.62491607666017	640.9230346679689	-1200.963012695313	-118.3128967285157	553.8490600585939	-1192.454711914063	-24.83604049682618	441.0820922851564	-1148.400024414063	-22.68775939941407	440.3600463867189	-1015.144348144531	-124.1846237182617	262.1806640625001	-1044.352294921875	-174.0179138183594	231.226303100586	-1114.494995117188	-154.1620178222657	218.1598663330079	-1074.336547851563	-214.2742004394532	174.6182098388672	-1036.380981445313	-330.5985717773438	110.2635650634766	-1080.782470703125	-405.6228942871095	84.84182739257814	-1025.16748046875	-191.1957244873047	56.78720474243165	-1051.167846679688	-203.8904266357422	43.70404815673829	-1099.4306640625	-305.8570251464844	124.0058670043946	-994.3416748046877	-71.85240936279298	698.7061157226564	-824.2839965820315	-6.469088554382326	716.3759765625001	-824.0109863281252	4.559784412384034	748.1527099609376	-831.700378417969	55.24632644653322	662.4336547851564	-835.4737548828127	109.3403625488282	629.3975219726564	-834.664001464844	137.3392791748047	641.6174316406251	-960.454040527344	241.2541961669922	566.3276367187501	-852.5793457031252	247.503158569336	465.5326538085939	-819.4401855468752	280.7764282226563	490.5164489746095	-841.015075683594	312.9568176269532	460.9288330078126	-881.003112792969	385.6938781738282	281.4959716796876	-839.962829589844	398.6319885253907	306.1134643554688	-927.4714355468752	374.7482910156251	205.1768951416016	-897.7886352539065	534.5480957031251	367.0463867187501	-879.4604492187502	527.9141845703126	365.5123901367188	-841.3121337890627	527.6438598632814	338.1773681640626	-793.960632324219	
2305	11.52	-263.7493591308594	1634.119140625	-1058.573974609375	-396.5393066406251	1517.936401367188	-1130.533325195313	-401.634002685547	1510.141479492188	-984.323425292969	-433.5421752929689	1377.526245117188	-1072.080322265625	-448.5053100585939	1043.808471679688	-1059.683959960938	-267.5563049316407	1331.6162109375	-1064.714233398438	-281.0055236816407	1376.413452148438	-1234.3623046875	-105.0418701171875	1340.457763671875	-1330.563598632813	-79.25991821289064	1371.571166992188	-1301.079223632813	-36.81101608276368	1341.6689453125	-1332.221069335938	27.60637855529786	1354.51123046875	-1323.852905273438	35.58102416992188	1285.177490234375	-1296.584716796875	310.5131530761719	1399.715942382813	-1186.600830078125	319.3081054687501	1410.073120117188	-1265.960571289063	408.2044067382814	1434.911743164063	-1190.834594726563	-281.7272644042969	1366.497314453125	-904.421081542969	-120.6194458007813	1333.0380859375	-803.8481445312502	-96.98255157470706	1360.994140625	-837.1536254882815	-50.84254074096681	1336.05810546875	-806.6929321289065	14.16952133178711	1345.755126953125	-817.7183837890627	20.38356590270996	1273.265380859375	-848.4229125976565	nan	nan	nan	304.2925109863282	1392.739379882813	-858.5996704101565	389.3523254394532	1409.625854492188	-939.7385253906252	-242.9268188476563	867.4487304687502	-1170.381225585938	-283.5309753417969	885.7855224609377	-892.0071411132815	-455.6495361328126	921.5266113281252	-1051.84228515625	-457.329315185547	893.033630371094	-1081.34423828125	-465.9146118164064	887.9240722656252	-1027.272827148438	-191.158432006836	661.1114501953126	-1215.21142578125	-121.7522048950196	612.9531860351564	-1207.51220703125	-82.55458068847658	640.9535522460939	-1200.728637695313	-118.3852081298828	554.0122680664064	-1192.15771484375	-24.70837783813477	441.0123291015626	-1148.171752929688	-22.85766983032227	440.507293701172	-1014.866149902344	-124.2362518310547	262.2059020996094	-1044.111083984375	-173.9802398681641	231.3753204345704	-1114.258666992188	-154.2102661132813	218.2834777832032	-1074.235229492188	-214.1275787353516	174.3610382080078	-1036.386352539063	-330.4506530761719	110.2484588623047	-1080.680908203125	-405.6427307128907	84.77337646484376	-1025.213012695313	-191.3895416259766	57.00865554809572	-1051.244384765625	-203.8784790039063	43.70786666870118	-1099.366943359375	-305.8759765625001	123.9601058959961	-994.199401855469	-71.66957092285158	699.3940429687501	-824.399353027344	-6.424187660217287	717.0189208984376	-824.2745361328127	4.662185192108155	748.9022827148439	-831.998229980469	55.41212081909181	663.3457641601564	-835.6087646484377	109.4997177124024	629.9840698242189	-834.930114746094	137.0442504882813	642.4248657226564	-960.8220825195315	241.418441772461	567.1389160156251	-852.9743652343752	247.6466217041016	466.1878662109376	-819.8659667968752	281.1340332031251	491.4219055175782	-841.2641601562502	313.1627807617188	461.8250122070314	-881.4797973632815	386.0632934570314	282.4002075195313	-840.3989868164065	399.0993957519532	307.2025756835938	-927.8738403320315	375.2510986328126	206.1417999267579	-897.9510498046877	534.7019042968751	368.1721496582032	-879.9556274414065	528.2746582031251	366.4176940917969	-841.8074951171877	527.9838867187501	339.1188049316407	-794.3502197265627	
2306	11.525	-263.9250793457032	1634.287231445313	-1058.2294921875	-396.6200561523439	1518.001586914063	-1130.288696289063	-401.7440795898439	1510.1220703125	-983.9721679687502	-433.5659179687501	1377.615600585938	-1071.9482421875	-448.5418090820314	1044.005249023438	-1059.775268554688	-267.5373840332032	1331.735717773438	-1064.592895507813	-281.0921936035157	1376.6259765625	-1234.08740234375	-105.5623779296875	1341.100219726563	-1330.407348632813	-79.52139282226564	1372.069091796875	-1300.919067382813	-36.57115173339844	1342.068969726563	-1331.993286132813	27.43471336364747	1354.924682617188	-1323.778198242188	35.62221145629884	1285.676879882813	-1296.672119140625	310.3020019531251	1400.0166015625	-1186.3828125	319.1280517578126	1410.689453125	-1265.811645507813	408.0567016601564	1435.62646484375	-1190.303588867188	-281.8043212890626	1366.476928710938	-904.174011230469	-120.6917724609375	1332.945068359375	-803.625671386719	-97.15144348144534	1361.041381835938	-836.8999023437502	-50.95198440551759	1336.002075195313	-806.4512329101565	14.10914611816407	1345.725830078125	-817.6120605468752	20.30589294433594	1273.248046875	-848.2630004882815	nan	nan	nan	304.5350036621094	1393.203979492188	-857.9168701171877	388.7813415527345	1410.066162109375	-939.4468383789065	-242.9489440917969	867.4868164062502	-1170.440551757813	-283.7736206054688	885.6390380859377	-891.8967285156252	-455.6954345703126	921.603942871094	-1051.935302734375	-457.3186950683595	893.2042236328127	-1081.466918945313	-466.0051879882814	887.947204589844	-1027.325805664063	-191.2128295898438	661.1666259765626	-1215.135986328125	-121.8000183105469	613.1088867187501	-1207.366577148438	-82.52432250976564	641.0636596679689	-1200.537353515625	-118.2169723510742	553.9633178710939	-1191.973754882813	-24.68576622009278	441.1091613769532	-1147.932373046875	-23.10856056213379	440.6779174804689	-1014.693420410156	-124.2358016967774	262.2820129394532	-1043.977661132813	-173.891845703125	231.2874755859376	-1114.2783203125	-154.2091979980469	218.2992095947266	-1074.072265625	-214.1539306640626	174.3235778808594	-1036.304443359375	-330.4717102050782	110.2787399291992	-1080.68408203125	-405.6382446289064	84.7687225341797	-1025.214721679688	-191.4522247314453	57.05156326293947	-1051.217041015625	-203.9063568115235	43.79382705688477	-1099.3779296875	-305.9289855957032	123.8929977416992	-994.188415527344	-71.64969635009767	699.8636474609376	-824.5531005859377	-6.378708362579347	717.4179077148439	-824.5902099609377	4.710596561431886	749.5635375976564	-832.1360473632815	55.49509811401369	664.0639038085939	-835.823181152344	109.5648574829102	630.7282714843751	-835.2019042968752	137.126220703125	643.0096435546876	-961.043884277344	241.7040405273438	567.8842773437501	-853.329284667969	248.0267028808594	467.3410949707032	-820.121765136719	281.4921875000001	491.924774169922	-841.5786132812502	313.5840454101563	462.5691833496095	-881.8386230468752	386.4206542968751	283.1431884765626	-840.8357543945315	399.4075012207032	308.0023498535157	-928.2681884765627	375.7155761718751	206.9824829101563	-898.363708496094	535.0089721679689	369.0852355957032	-880.4327392578127	528.5684204101564	367.5730590820313	-842.342468261719	528.3261108398439	340.0883483886719	-794.8652954101565	
2307	11.53	-264.1041564941407	1634.489868164063	-1058.015869140625	-396.764862060547	1518.203857421875	-1129.975952148438	-401.7619934082032	1510.235961914063	-983.8063964843752	-433.6419677734376	1377.728149414063	-1071.761108398438	-448.6589965820314	1044.159790039063	-1059.806030273438	-267.7479248046876	1331.84228515625	-1064.467651367188	-281.1438903808594	1376.842041015625	-1233.891723632813	-106.0471115112305	1341.577392578125	-1330.33056640625	-79.71520233154298	1372.454467773438	-1300.6962890625	-36.64647293090821	1342.583618164063	-1331.824829101563	27.27022552490235	1355.241088867188	-1323.601928710938	35.64624786376954	1286.085571289063	-1296.603271484375	309.9511718750001	1400.267211914063	-1186.111572265625	318.8340759277344	1411.328247070313	-1265.640625	407.9041442871095	1435.801635742188	-1190.011596679688	-281.8943176269532	1366.48876953125	-903.962097167969	-120.8241577148438	1332.78271484375	-803.3623046875002	-97.21045684814456	1361.05322265625	-836.6850585937502	-51.09288787841798	1335.963989257813	-806.2583618164065	13.9862642288208	1345.678344726563	-817.4034423828127	20.19203567504883	1273.256469726563	-848.0463867187502	nan	nan	nan	304.4674682617188	1393.323852539063	-857.5742187500002	388.7190246582032	1410.290893554688	-939.0797119140627	-243.0036315917969	867.7053222656252	-1170.546142578125	-283.8675231933594	885.7544555664065	-892.026550292969	-455.8629760742189	921.7132568359377	-1052.000122070313	-457.4417114257814	893.3347167968752	-1081.561401367188	-466.124481201172	887.966491699219	-1027.435668945313	-191.1801300048828	661.2767944335939	-1215.08251953125	-121.6500854492188	613.0806274414064	-1207.124633789063	-82.70843505859376	641.1953735351564	-1200.48828125	-120.0191345214844	554.5088500976564	-1192.123779296875	-24.71333503723145	441.2360229492189	-1147.7451171875	-23.27885818481446	440.8462524414064	-1014.527893066406	-124.2928237915039	262.3712768554688	-1043.845581054688	-173.8926849365235	231.3222961425782	-1114.123779296875	-154.2152252197266	218.3116149902344	-1073.91552734375	-214.2146453857422	174.3320770263672	-1036.177490234375	-330.4707336425782	110.2624816894532	-1080.65966796875	-405.6297607421876	84.74700927734376	-1025.219360351563	-191.3347473144532	56.92622375488283	-1051.149169921875	-204.1457824707032	43.91287231445313	-1099.448486328125	-305.9860229492188	123.8915023803711	-994.1514282226565	-71.57468414306642	700.4155883789064	-824.6529541015627	-6.300639152526857	718.0969238281251	-824.7501220703127	4.714119911193849	750.1647949218751	-832.4583129882815	55.52423095703126	664.5742187500001	-835.9231567382815	109.7453231811524	631.4963989257814	-835.4639892578127	137.2587127685547	643.7933959960939	-961.3667602539065	241.9151306152344	568.4213256835939	-853.6065063476565	248.332748413086	468.2704162597657	-820.3840942382815	281.6654357910157	492.7405395507814	-841.9019775390627	313.8555908203126	463.2222290039064	-882.0982666015627	386.7800903320314	283.9306640625001	-841.2168579101565	399.779022216797	308.8427429199219	-928.8975830078127	375.9754638671876	207.7593383789063	-898.661560058594	535.5269775390626	369.1411743164063	-880.7420043945315	528.8757324218751	368.4136352539063	-842.7705078125002	528.6834716796876	341.1798706054688	-795.3168945312502	
